HIERARCHY
ROOT Hips
{
  OFFSET 3.13124 94.3669 -3.18751
  CHANNELS  6 Xposition Yposition Zposition Zrotation Xrotation Yrotation
  JOINT LeftUpLeg
  {
    OFFSET 8.64259 1.95398 -2.38835
    CHANNELS 3 Zrotation Xrotation Yrotation
    JOINT LeftLeg
    {
      OFFSET 43.7702 0 0
      CHANNELS 3 Zrotation Xrotation Yrotation
      JOINT LeftFoot
      {
        OFFSET 40.6238 0 0
        CHANNELS 3 Zrotation Xrotation Yrotation
        JOINT LeftToeBase
        {
          OFFSET 12.7242 0 0
          CHANNELS 3 Zrotation Xrotation Yrotation
          End Site
          {
            OFFSET 0 0 0
          }
        }
      }
    }
  }
  JOINT RightUpLeg
  {
    OFFSET -8.2249 1.95398 -2.59336
    CHANNELS 3 Zrotation Xrotation Yrotation
    JOINT RightLeg
    {
      OFFSET 43.5653 0 0
      CHANNELS 3 Zrotation Xrotation Yrotation
      JOINT RightFoot
      {
        OFFSET 40.6238 0 0
        CHANNELS 3 Zrotation Xrotation Yrotation
        JOINT RightToeBase
        {
          OFFSET 12.7242 0 0
          CHANNELS 3 Zrotation Xrotation Yrotation
          End Site
          {
            OFFSET 0 0 0
          }
        }
      }
    }
  }
  JOINT Spine
  {
    OFFSET 0.165834 0.87714 6.61349
    CHANNELS 3 Zrotation Xrotation Yrotation
    JOINT Spine1
    {
      OFFSET 7.38962 1.71661e-005 0
      CHANNELS 3 Zrotation Xrotation Yrotation
      JOINT Spine2
      {
        OFFSET 11.9445 1.14441e-005 0
        CHANNELS 3 Zrotation Xrotation Yrotation
        JOINT Spine3
        {
          OFFSET 14.7254 4.19617e-005 0
          CHANNELS 3 Zrotation Xrotation Yrotation
          JOINT Spine4
          {
            OFFSET 10.9679 0 0
            CHANNELS 3 Zrotation Xrotation Yrotation
            JOINT RightShoulder
            {
              OFFSET 2.46616 -1.6653 3.69651
              CHANNELS 3 Zrotation Xrotation Yrotation
              JOINT RightArm
              {
                OFFSET 13.0012 0 0
                CHANNELS 3 Zrotation Xrotation Yrotation
                JOINT RightForeArm
                {
                  OFFSET 28.7848 1.52588e-005 0
                  CHANNELS 3 Zrotation Xrotation Yrotation
                  JOINT RightHand
                  {
                    OFFSET 26.5688 1.52588e-005 0
                    CHANNELS 3 Zrotation Xrotation Yrotation
                    End Site
                    {
                      OFFSET 0 0 0
                    }
                  }
                }
              }
            }
            JOINT LeftShoulder
            {
              OFFSET 2.38034 -1.29275 -3.75231
              CHANNELS 3 Zrotation Xrotation Yrotation
              JOINT LeftArm
              {
                OFFSET 16.3182 6.10352e-005 0
                CHANNELS 3 Zrotation Xrotation Yrotation
                JOINT LeftForeArm
                {
                  OFFSET 27.0901 0 0
                  CHANNELS 3 Zrotation Xrotation Yrotation
                  JOINT LeftHand
                  {
                    OFFSET 24.5451 1.52588e-005 0
                    CHANNELS 3 Zrotation Xrotation Yrotation
                    End Site
                    {
                      OFFSET 0 0 0
                    }
                  }
                }
              }
            }
            JOINT Neck
            {
              OFFSET 5.0226 -0.0266342 0
              CHANNELS 3 Zrotation Xrotation Yrotation
              JOINT Head
              {
                OFFSET 6.69363 2.86102e-005 0
                CHANNELS 3 Zrotation Xrotation Yrotation
                End Site
                {
                  OFFSET 0 0 0
                }
              }
            }
          }
        }
      }
    }
  }
}
MOTION
Frames:	7
Frame Time:	0.0333333
3.2395 95.0267 -4.30962 51.0196 -89.9966 51.0613 -175.296 2.37979 90.9157 -8.46716 4.55631 0.498393 63.1774 1.46594 0.759944 28.7808 8.22314e-006 1.83695e-006 -179.854 1.87928 90.4133 -7.56171 0.297156 0.0149702 62.7113 -1.15805 -0.585282 28.7808 1.20825e-005 1.93947e-005 0.00340874 6.34107 -90.0428 14.1935 0.00671276 -0.0047161 2.52251 0.00643648 -0.00477756 -20.0126 0.00242954 -0.00417714 1.77185e-007 0.00242326 -0.00418937 101.233 -18.1151 -84.5 -9.77123 29.674 -8.74112 -7.02538 -30.1211 -9.89273 1.86781 0.112254 1.33996 -78.6639 -21.0751 95.0124 15.6356 -30.2922 -8.73451 5.51944 30.3513 -8.91711 -1.89691 -0.0778884 1.37048 1.76154 -0.00228853 -0.00673241 -7.41403 0.00112146 0.00732481 
3.2209 95.0211 -4.34447 34.7295 -89.961 34.7897 -175.315 2.34728 90.9357 -8.28373 4.55911 0.51252 63.1817 1.41047 0.73114 28.7808 8.22314e-006 1.83695e-006 -179.857 1.86122 90.4371 -7.41339 0.261739 0.0149701 62.5998 -1.28014 -0.653186 28.7808 1.20825e-005 1.93947e-005 0.00587077 6.3408 -90.0731 14.1935 0.00671276 -0.0047161 2.52251 0.00643648 -0.00477756 -20.0126 0.00242954 -0.00417714 1.77185e-007 0.00242326 -0.00418937 101.278 -18.2253 -84.4498 -9.81131 29.5201 -9.13476 -6.55249 -30.1804 -8.95362 1.63907 0.0903885 0.888498 -78.6399 -21.0519 94.988 15.5535 -30.3281 -8.57738 5.72719 30.33 -9.32636 -2.02748 -0.0778843 1.49076 1.8805 -0.0341663 -0.10692 -7.46096 0.0176514 0.113817 
3.20924 95.0247 -4.37636 111.171 -89.9934 111.219 -175.299 2.41218 90.9317 -8.45115 4.61041 0.534243 63.1477 1.36999 0.704395 28.7808 8.22314e-006 1.83695e-006 -179.847 2.00739 90.4454 -7.73831 0.30864 0.0149702 62.7293 -1.16705 -0.59073 28.7808 1.20825e-005 1.93947e-005 0.003593 6.34106 -90.045 14.1935 0.00671276 -0.0047161 2.52251 0.00643648 -0.00477756 -20.0126 0.00242954 -0.00417714 1.77185e-007 0.00242326 -0.00418937 101.232 -18.259 -84.4359 -9.72464 29.5272 -9.05082 -6.68933 -30.3011 -9.18803 1.66848 0.0905699 0.819242 -78.6906 -21.0282 95.003 15.5106 -30.3661 -8.48984 5.8838 30.376 -9.6173 -2.13809 -0.0778298 1.66146 1.90631 0.00494262 -0.102599 -7.45883 0.0171949 0.0703371 
3.19998 95.0632 -4.40426 -145.089 -89.9786 -145.022 -175.31 2.36872 90.9535 -8.34941 4.61903 0.559788 62.9577 1.3282 0.679228 28.7808 8.22314e-006 1.83695e-006 -179.805 0.982207 90.4631 -5.60177 0.362711 0.0149703 61.7359 -1.10557 -0.537692 28.7808 1.20825e-005 1.93947e-005 0.00582821 6.3408 -90.0727 14.1935 0.00671276 -0.0047161 2.52251 0.00643648 -0.00477756 -20.0126 0.00242954 -0.00417714 1.77185e-007 0.00242326 -0.00418937 101.236 -18.3338 -84.4592 -9.73797 29.4766 -9.21892 -6.50674 -30.276 -8.8393 1.59758 0.0837576 0.657002 -78.6736 -20.9939 95.004 15.4593 -30.3945 -8.39835 6.01559 30.3364 -9.88378 -2.20881 -0.0767896 1.74803 1.91433 0.014672 -0.212018 -7.42933 0.0473993 0.176478 
3.19337 95.0421 -4.43312 -105.198 -89.9292 -105.148 -175.306 2.43314 90.9393 -8.46304 4.5796 0.54869 63.0409 1.34465 0.688078 28.7808 8.22314e-006 1.83695e-006 -179.834 1.80324 90.4454 -7.24905 0.279216 0.0149701 62.4604 -1.15444 -0.578836 28.7808 1.20825e-005 1.93947e-005 0.00385553 6.34104 -90.0478 14.1935 0.00671276 -0.0047161 2.52251 0.00643648 -0.00477756 -20.0126 0.00242954 -0.00417714 1.77185e-007 0.00242326 -0.00418937 101.212 -18.3541 -84.521 -9.70616 29.4166 -9.41775 -6.30687 -30.1255 -8.48826 1.50015 0.0773943 0.577855 -78.6564 -20.9533 95.0653 15.444 -30.3372 -8.56897 5.8267 30.315 -9.52366 -2.12261 -0.0753919 1.50171 2.01495 0.0732173 -0.203112 -7.50696 0.0382107 0.14189 
3.19306 95.05 -4.45983 -101.05 -89.8852 -100.936 -175.31 2.26721 91.0079 -8.10013 4.50326 0.531773 63.0543 1.35765 0.702519 28.7808 8.22314e-006 1.83695e-006 -179.802 1.07688 90.5125 -5.70459 0.34918 0.0147622 61.7242 -1.14911 -0.561349 28.7808 1.20825e-005 1.93947e-005 0.00924673 6.34019 -90.1143 14.1935 0.00671276 -0.0047161 2.52251 0.00643648 -0.00477756 -20.0126 0.00242954 -0.00417714 1.77185e-007 0.00242326 -0.00418937 101.226 -18.3743 -84.56 -9.74402 29.404 -9.51056 -6.24116 -30.3546 -8.31676 1.46113 0.0720394 0.386903 -78.6154 -20.9357 95.0943 15.4644 -30.3665 -8.49623 5.91269 30.362 -9.67716 -2.24475 -0.0738087 1.40623 2.07237 0.106448 -0.236646 -7.54365 0.0617285 0.177553 
3.19435 95.0429 -4.46681 -128.919 -89.8725 -128.821 -175.321 2.16824 90.9921 -8.00652 4.43923 0.512916 63.0791 1.43312 0.748162 28.7808 8.22314e-006 1.83695e-006 -179.824 1.0689 90.4921 -5.80752 0.296214 0.0118541 61.8152 -1.08811 -0.525586 28.7808 1.20825e-005 1.93947e-005 0.010253 6.33992 -90.1284 14.1935 0.00671276 -0.0047161 2.52251 0.00643648 -0.00477756 -20.0126 0.00242954 -0.00417714 1.77185e-007 0.00242326 -0.00418937 101.221 -18.331 -84.511 -9.72737 29.1939 -10.1732 -5.54986 -30.0474 -6.99862 1.07764 0.0473555 -0.0337083 -78.6448 -20.9194 95.0712 15.4288 -30.3845 -8.46061 6.00999 30.4561 -9.83851 -2.24084 -0.0722277 1.6026 2.1126 0.0822121 -0.243868 -7.63238 0.0765426 0.187696 
